<svg width="0" height="0" class="hidden">
  <symbol xmlns="http://www.w3.org/2000/svg" viewBox="0 0 14 25" id="facebook">
    <path d="M8.648 25h-3.95c-.66 0-1.197-.544-1.197-1.213v-9.03H1.196c-.66 0-1.196-.544-1.196-1.213V9.675c0-.669.537-1.213 1.196-1.213h2.305V6.525c0-1.922.595-3.556 1.721-4.727C6.353.622 7.934 0 9.793 0l3.013.005A1.206 1.206 0 0114 1.218V4.81c0 .67-.537 1.213-1.196 1.213h-2.028c-.619 0-.776.126-.81.165-.056.064-.122.245-.122.743v1.531h2.808c.21 0 .416.053.591.153.38.214.616.621.616 1.06l-.002 3.87c0 .668-.536 1.212-1.196 1.212H9.844v9.03c0 .669-.537 1.213-1.196 1.213zm-3.7-1.466h3.45v-9.433c0-.447.359-.81.799-.81h3.215V9.928H9.198a.805.805 0 01-.799-.81V6.931c0-.572.057-1.223.484-1.713.515-.592 1.327-.66 1.893-.66h1.779V1.47l-2.762-.004c-2.988 0-4.845 1.938-4.845 5.059v2.593c0 .447-.358.81-.799.81H1.446v3.363h2.702c.44 0 .8.364.8.81v9.433zm7.855-22.063z"></path>
  </symbol>
  <symbol xmlns="http://www.w3.org/2000/svg" viewBox="0 0 26 26" id="instagram">
    <path d="M18.396.05H6.828A6.835 6.835 0 000 6.876v11.568a6.835 6.835 0 006.828 6.828h11.568a6.835 6.835 0 006.827-6.828V6.877A6.835 6.835 0 0018.396.049zm5.349 18.395c0 2.95-2.4 5.349-5.35 5.349H6.829c-2.95 0-5.35-2.4-5.35-5.349V6.877c0-2.95 2.4-5.349 5.35-5.349h11.568c2.95 0 5.349 2.4 5.349 5.349v11.568z" fill="#fff"></path>
    <path d="M12.612 5.764a6.905 6.905 0 00-6.897 6.897 6.905 6.905 0 006.897 6.897 6.904 6.904 0 006.897-6.897 6.905 6.905 0 00-6.897-6.897zm0 12.315a5.424 5.424 0 01-5.418-5.418 5.424 5.424 0 015.418-5.418 5.424 5.424 0 015.418 5.418 5.424 5.424 0 01-5.418 5.418zm7.062-14.764a2.04 2.04 0 00-2.038 2.038 2.04 2.04 0 002.038 2.038 2.04 2.04 0 002.038-2.038 2.04 2.04 0 00-2.038-2.038zm0 2.597a.56.56 0 110-1.12.56.56 0 010 1.12z"></path>
  </symbol>
  <symbol xmlns="http://www.w3.org/2000/svg" viewBox="0 0 25 19" id="telegram">
    <path d="M24.794.33a.908.908 0 00-1.012-.275L.849 8.3a1.278 1.278 0 00-.288 2.259l3.278 2.226c.317.215.726.238 1.066.06l7.11-3.73-5.542 4.116c-.26.193-.415.502-.415.825v3.813a1.078 1.078 0 001.67.89l2.49-1.642 2.45 1.66a1.296 1.296 0 001.823-.383L24.866 1.375A.9.9 0 0024.794.33zM13.34 17.469l-2.536-1.72a1.036 1.036 0 00-1.155-.008l-2.126 1.403V14.27L17.31 7c.437-.324.547-.915.256-1.374a1.03 1.03 0 00-1.358-.36L4.451 11.434 1.678 9.55l21.118-7.59-9.456 15.509z"></path>
  </symbol>
  <symbol xmlns="http://www.w3.org/2000/svg" viewBox="0 0 26 26" id="whatsapp">
    <path d="M21.64 3.632A12.15 12.15 0 0012.993.049h-.002c-1.616 0-3.19.313-4.68.93a12.17 12.17 0 00-3.968 2.653 12.152 12.152 0 00-3.582 8.65c0 1.948.47 3.884 1.36 5.61L.066 23.764c-.145.414-.043.864.268 1.175a1.124 1.124 0 001.175.268l5.874-2.056a12.268 12.268 0 005.61 1.361 12.15 12.15 0 008.649-3.583 12.152 12.152 0 003.583-8.649c0-3.267-1.273-6.339-3.583-8.65zm-1.045 16.252a10.681 10.681 0 01-7.603 3.15 10.78 10.78 0 01-5.048-1.257 1.14 1.14 0 00-.909-.07L1.7 23.573l1.868-5.337a1.14 1.14 0 00-.07-.908A10.78 10.78 0 012.24 12.28c0-2.872 1.119-5.572 3.15-7.603 2.03-2.03 4.73-3.15 7.602-3.15 2.873 0 5.573 1.119 7.604 3.15a10.681 10.681 0 013.15 7.603c0 2.872-1.12 5.573-3.15 7.603z"></path>
    <path d="M17.537 13.374a1.445 1.445 0 00-2.04 0l-.616.615a8.958 8.958 0 01-3.598-3.597l.616-.616a1.445 1.445 0 000-2.04l-1.659-1.66a1.445 1.445 0 00-2.04 0L6.872 7.405c-.76.76-.798 2.066-.107 3.678.6 1.4 1.698 2.94 3.092 4.333 1.394 1.394 2.932 2.492 4.332 3.092.766.328 1.463.492 2.065.492.666 0 1.215-.2 1.614-.599l1.327-1.327c.273-.272.423-.635.423-1.02 0-.386-.15-.748-.423-1.02l-1.659-1.66zm-.714 3.98c-.217.217-.884.293-2.05-.207-1.231-.527-2.605-1.514-3.87-2.778-1.263-1.264-2.25-2.638-2.777-3.87-.5-1.165-.424-1.832-.207-2.05l1.301-1.3 1.607 1.607-.77.77a1.129 1.129 0 00-.21 1.315 10.436 10.436 0 004.585 4.584c.438.223.966.14 1.315-.21l.77-.77 1.607 1.608-1.3 1.301z"></path>
  </symbol>
</svg>